<?xml version="1.0" encoding="utf-8"?>
<!-- Generator: Adobe Illustrator 18.0.0, SVG Export Plug-In . SVG Version: 6.00 Build 0)  -->
<!DOCTYPE svg PUBLIC "-//W3C//DTD SVG 1.1//EN" "http://www.w3.org/Graphics/SVG/1.1/DTD/svg11.dtd">
<svg version="1.1" id="Layer_1" xmlns="http://www.w3.org/2000/svg" xmlns:xlink="http://www.w3.org/1999/xlink" x="0px" y="0px"
	 viewBox="0 0 145.8 90.2" enable-background="new 0 0 145.8 90.2" xml:space="preserve">
<g>
	<path fill="#78AF9F" stroke="#78AF9F" stroke-width="5.000000e-02" stroke-miterlimit="10" d="M79.3,34.5c0,8.8,2.6,16.3,7.9,22.4
		c5.2-6.1,7.8-13.6,7.8-22.4c0-9.3-2.6-17-7.9-23.1C81.9,17.5,79.3,25.2,79.3,34.5z"/>
	<path fill="#48A091" stroke="#48A091" stroke-width="5.000000e-02" stroke-miterlimit="10" d="M29.7,16.3l11.6-7.4
		c-1.1-2.1-2.5-3.6-4-4.8c-0.7-0.5-1.4-0.9-2.2-1.3h-5.4V16.3z"/>
	<path fill="#6CBE45" d="M128.7,2.8v7c-2.8-2.9-5.9-5-9.2-6.4c-3.3-1.4-6.9-2.1-10.6-2.1c-8.2,0-15.2,3.1-20.9,9.3
		c-0.3,0.3-0.5,0.6-0.8,0.9c5.2,6.1,7.9,13.8,7.9,23.1c0,8.8-2.6,16.3-7.8,22.4c0.3,0.4,0.7,0.8,1,1.1c5.9,6.3,13,9.5,21.1,9.5
		c3.6,0,7-0.6,10.1-1.9c3.1-1.3,6.2-3.4,9.3-6.3v6.7h15.8v-63H128.7z M124.5,47.8c-3.3,3.5-7.4,5.2-12.4,5.2
		c-4.8,0-8.9-1.8-12.2-5.3c-3.3-3.5-4.9-8-4.9-13.4c0-5.4,1.6-9.8,4.8-13.3c3.2-3.5,7.3-5.2,12.2-5.2c5,0,9.1,1.7,12.4,5.1
		c3.3,3.4,4.9,7.8,4.9,13.3C129.4,39.8,127.7,44.4,124.5,47.8z"/>
	<path fill="#E8E116" d="M35,2.8C35,2.8,35,2.8,35,2.8 M29.7,16.3L29.7,16.3l0,72.7h15.7V59.3c3.1,2.9,6.2,5.1,9.3,6.3
		c3.1,1.3,6.5,1.9,10.1,1.9c8.2,0,15.2-3.2,21.2-9.5c0.4-0.4,0.7-0.8,1.1-1.2c-5.3-6.1-7.9-13.6-7.9-22.4c0-9.3,2.6-17,7.9-23.1
		c-0.3-0.3-0.5-0.6-0.8-0.9c-5.8-6.2-12.8-9.3-21-9.3c-3.8,0-7.3,0.7-10.7,2.1c-3.3,1.4-6.4,3.6-9.3,6.4v-7H35
		c0.8,0.4,1.5,0.8,2.2,1.3c1.6,1.1,2.9,2.7,4,4.8L29.7,16.3 M74.2,47.8C70.9,51.3,66.9,53,62,53c-5,0-9.1-1.7-12.4-5.2
		c-3.3-3.5-4.9-8-4.9-13.6c0-5.5,1.6-9.9,4.9-13.3c3.3-3.4,7.4-5.1,12.4-5.1c4.9,0,9,1.7,12.3,5.2c3.2,3.5,4.9,7.9,4.9,13.3
		C79.2,39.8,77.6,44.3,74.2,47.8z"/>
	<path fill="#47C8F5" d="M29.7,16.3V2.8H35c0,0,0,0,0,0h0c-0.5-0.2-0.9-0.4-1.4-0.6c-1.7-0.7-3.4-1-5-1c-2.9,0-5.6,0.8-8,2.4
		c-2.4,1.6-4.4,4-5.9,7.1V2.8H1.1V66h15.7V40.4l-0.1-3.1c0-8.8,0.8-14.7,2.5-17.8c1.7-3,3.7-4.6,6.2-4.5
		C27.5,15.1,29.7,16.3,29.7,16.3L29.7,16.3"/>
</g>
</svg>
